<?xml version="1.0" standalone="no"?><!DOCTYPE svg PUBLIC "-//W3C//DTD SVG 1.1//EN" "http://www.w3.org/Graphics/SVG/1.1/DTD/svg11.dtd"><svg class="icon" height="512" viewBox="0 0 1024 1024" version="1.1" xmlns="http://www.w3.org/2000/svg"><path d="M678.4 185.6c-38.4-38.4-96-57.6-160-57.6-32 0-64 6.4-89.6 12.8-32 12.8-57.6 25.6-83.2 51.2-19.2 19.2-38.4 44.8-51.2 70.4-12.8 25.6-19.2 64-19.2 115.2v12.8h128v-12.8c0-83.2 44.8-128 115.2-128 32 0 51.2 6.4 64 25.6 12.8 19.2 25.6 32 25.6 57.6 0 64-38.4 70.4-70.4 115.2-70.4 96-76.8 192-76.8 230.4V704h128s0-121.6 64-192c32-38.4 57.6-64 70.4-83.2 12.8-25.6 19.2-51.2 19.2-83.2 6.4-64-19.2-121.6-64-160zM467.2 768h128v128h-128z" /></svg>